{"title":"BBC Proms 2012 - 26. Bach &amp;ndash; Mass in B minor","uid":7548271,"size":1320304949,"categoryP":"video","categoryS":"music_videos","magnet":"?xt=urn:btih:5e84ec683579fa34ccc992f391d129d3c9cf1258&amp;dn=BBC+Proms+2012+-+26.+Bach+%26ndash%3B+Mass+in+B+minor&amp;tr=udp%3A%2F%2Ftracker.openbittorrent.com%3A80&amp;tr=udp%3A%2F%2Fopen.demonii.com%3A1337&amp;tr=udp%3A%2F%2Ftracker.coppersurfer.tk%3A6969&amp;tr=udp%3A%2F%2Fexodus.desync.com%3A6969","seeders":1,"leechers":0,"uploader":"deandominic","files":2,"time":1345410509,"description":"\nBBC Proms 2012 - 26. Bach - Mass in B minor\n\nHaving restored choral music to the forefront of his ensemble's recent activities, Baroque specialist Harry Bicket returns to the Proms hotfoot from the 2012 Leipzig Bachfest with one of music's great milestones.\n\nSince its rediscovery by 19th-century Romantics, Bach's Mass in B minor has been continually reimagined, most recently with an injection of period-style agility and buoyancy. Still the mysteries remain, as befits a testament through which the composer seemingly intended to carve out his unique place in cultural history.\n\nJ. S. Bach\nMass in B minor (110 mins)\n\nJoelle Harvey soprano\nCarolyn Sampson soprano\nIestyn Davies counter-tenor\nEd Lyon tenor\nMatthew Rose bass\nChoir of the English Concert\nThe English Concert\nHarry Bicket conductor\n\nVideo\nID                                       : 1\nFormat                                   : AVC\nFormat/Info                              : Advanced Video Codec\nFormat profile                           : &lt;a class=&quot;__cf_email__&quot; href=&quot;/cdn-cgi/l/email-protection&quot; data-cfemail=&quot;82cfe3ebecc2ceb1acb2&quot;&gt;[email&amp;#160;protected]&lt;/a&gt;&lt;script data-cfhash='f9e31' type=&quot;text/javascript&quot;&gt;\n/* &lt;![CDATA[ */!function(){try{var t=&quot;currentScript&quot;in document?document.currentScript:function(){for(var t=document.getElementsByTagName(&quot;script&quot;),e=t.length;e--;)if(t[e].getAttribute(&quot;data-cfhash&quot;))return t[e]}();if(t&amp;&amp;t.previousSibling){var e,r,n,i,c=t.previousSibling,a=c.getAttribute(&quot;data-cfemail&quot;);if(a){for(e=&quot;&quot;,r=parseInt(a.substr(0,2),16),n=2;a.length-n;n+=2)i=parseInt(a.substr(n,2),16)^r,e+=String.fromCharCode(i);e=document.createTextNode(e),c.parentNode.replaceChild(e,c)}t.parentNode.removeChild(t);}}catch(u){}}()/* ]]&gt; */&lt;/script&gt;\nFormat settings, CABAC                   : Yes\nFormat settings, ReFrames                : 4 frames\nCodec ID                                 : avc1\nCodec ID/Info                            : Advanced Video Coding\nDuration                                 : 1h 57mn\nBit rate mode                            : Constant\nBit rate                                 : 1 404 Kbps\nWidth                                    : 832 pixels\nHeight                                   : 468 pixels\nDisplay aspect ratio                     : 16:9\nFrame rate mode                          : Constant\nFrame rate                               : 25.000 fps\nStandard                                 : PAL\nColor space                              : YUV\nChroma subsampling                       : 4:2:0\nBit depth                                : 8 bits\nScan type                                : Progressive\nBits/(Pixel*Frame)                       : 0.144\nStream size                              : 1.15 GiB (93%)\n\nAudio\nID                                       : 2\nFormat                                   : AAC\nFormat/Info                              : Advanced Audio Codec\nFormat profile                           : HE-AAC / LC\nCodec ID                                 : 40\nDuration                                 : 1h 57mn\nBit rate mode                            : Constant\nBit rate                                 : 96.0 Kbps\nChannel(s)                               : 2 channels\nChannel positions                        : Front: L R\nSampling rate                            : 48.0 KHz / 24.0 KHz\nCompression mode                         : Lossy\nStream size                              : 79.4 MiB (6%)\n","torrent":{"xt":"urn:btih:5e84ec683579fa34ccc992f391d129d3c9cf1258","amp;dn":"BBC+Proms+2012+-+26.+Bach+%26ndash%3B+Mass+in+B+minor","amp;tr":["udp%3A%2F%2Ftracker.openbittorrent.com%3A80","udp%3A%2F%2Fopen.demonii.com%3A1337","udp%3A%2F%2Ftracker.coppersurfer.tk%3A6969","udp%3A%2F%2Fexodus.desync.com%3A6969"],"infoHash":"5e84ec683579fa34ccc992f391d129d3c9cf1258","infoHashBuffer":{"type":"Buffer","data":[94,132,236,104,53,121,250,52,204,201,146,243,145,209,41,211,201,207,18,88]},"announce":[],"urlList":[]}}